# xmcd
#
# Track frame offsets:
#  183
#  12833
#  24525
#  32865
#  41460
#  49980
#  58680
#  69820
#  82753
#  95760
#  110325
#  122718
#  135590
#  146438
#  157078
#  168798
#  174903
#  185480
#  196008
#  205135
#  215158
#  225480
#
# Disc length: 3154 seconds
#
# Revision: 0
# Processed by: cddbd v1.5.1PL0 Copyright (c) Steve Scherf et al.
# Submitted via: AltoMP3_Maker 3.0
#
DISCID=250c5016
DTITLE=Gene Autry - Back In The Saddle Again
DYEAR=1900
DGENRE=
TTITLE0=Back In The Saddle Again
TTITLE1=I Hang My Head And Cry
TTITLE2=Tweedle-O-Twill
TTITLE3=Tears On The Pillow
TTITLE4=Be Honest With Me
TTITLE5=Goodbye Little Darling
TTITLE6=Lonely River
TTITLE7=Under Fiesta Stars
TTITLE8=Let Me Cry On Your Shoulders
TTITLE9=Blue Canadian Rockies
TTITLE10=(I Was) Just Walking Out The Door
TTITLE11=Cowboys Trademark
TTITLE12=Can't Shake The Sands Of Texas From My Shoes
TTITLE13=The Last Mile Home
TTITLE14=Dixie Cannonball
TTITLE15=Cowboy Blues
TTITLE16=You're The Only Good Thing
TTITLE17=A Voice In The Choir
TTITLE18=The Angel Song
TTITLE19=A New Star Is Shining In Heaven
TTITLE20=Silver Spurs
TTITLE21=Keep Rollin Lazy Longhorns
EXTD=
EXTT0=
EXTT1=
EXTT2=
EXTT3=
EXTT4=
EXTT5=
EXTT6=
EXTT7=
EXTT8=
EXTT9=
EXTT10=
EXTT11=
EXTT12=
EXTT13=
EXTT14=
EXTT15=
EXTT16=
EXTT17=
EXTT18=
EXTT19=
EXTT20=
EXTT21=
PLAYORDER=
